PathFileType	4	(X/Y/Z)	./resultDataOpenSim/trcMotMarkerGrf/sub10/qtm-04-07.trc
DataRate	CameraRate	NumFrames	NumMarkers	Units	OrigDataRate	OrigDataStartFrame	OrigNumFrames
250.000000	250.000000	7	24	m	250.000000	492	562
Frame#	Time	L.Toe.Tip			R.Toe.Tip			L.Ankle.Lat			R.Ankle.Lat			L.Ankle.Med			R.Ankle.Med			L.Heel			R.Heel			L.Knee.Lat			R.Knee.Lat			L.Knee.Med			R.Knee.Med			L.Thigh.Upper			R.Thigh.Upper			L.ASIS			R.ASIS			V.Sacral			L.Acromium			R.Acromium			C7			L.Elbow			R.Elbow			L.Wrist.Lat			R.Wrist.Lat
		X1	Y1	Z1	X2	Y2	Z2	X3	Y3	Z3	X4	Y4	Z4	X5	Y5	Z5	X6	Y6	Z6	X7	Y7	Z7	X8	Y8	Z8	X9	Y9	Z9	X10	Y10	Z10	X11	Y11	Z11	X12	Y12	Z12	X13	Y13	Z13	X14	Y14	Z14	X15	Y15	Z15	X16	Y16	Z16	X17	Y17	Z17	X18	Y18	Z18	X19	Y19	Z19	X20	Y20	Z20	X21	Y21	Z21	X22	Y22	Z22	X23	Y23	Z23	X24	Y24	Z24

492	1.964	1.6391036	0.046384693	-0.099653634	0.81246315	0.037528055	0.060266892	1.5021447	0.06440333	-0.12462461	0.71212993	0.13274498	0.09736043	1.5130392	0.088093105	-0.04269341	0.74801556	0.1407735	0.016227923	1.4400098	0.033363886	-0.078620788	0.65970872	0.14048538	0.048271219	1.4170888	0.44503915	-0.15061922	0.97853059	0.43425353	0.12594518	1.4394552	0.42215225	-0.031734827	1.0153819	0.41922241	0.0030030338	1.2687525	0.79397436	-0.2033267	1.1106239	0.81996027	0.16008762	1.2952212	0.89962022	-0.11631848	1.2183087	0.89740387	0.12118614	1.0673607	0.90892168	-0.070499209	1.1772083	1.3860331	-0.17059284	1.163515	1.3613754	0.147101	1.0853692	1.3908022	-0.021305249	0.97352491	1.1270892	-0.25311878	1.2453397	1.0131874	0.18506438	0.98305606	0.89820952	-0.33356104	1.4744325	0.96129893	0.26181156
493	1.968	1.6403258	0.045200674	-0.098753464	0.81321228	0.037409554	0.059842091	1.5032809	0.064403128	-0.1241523	0.71564363	0.13552765	0.097257791	1.5140683	0.087821155	-0.042140275	0.75242052	0.14258374	0.016509829	1.4405435	0.033776535	-0.07869721	0.66416024	0.14430312	0.047726203	1.4247501	0.44641111	-0.15075039	0.98500114	0.43450082	0.12577062	1.4448825	0.42324805	-0.031653154	1.0223933	0.41871841	0.0032474692	1.2765352	0.79537877	-0.20400606	1.1171033	0.81948283	0.15948845	1.3016922	0.90011883	-0.11640128	1.22488	0.89715635	0.12043792	1.0740591	0.9095775	-0.07112969	1.1836738	1.3859614	-0.17180117	1.1703712	1.3621927	0.14604893	1.0920129	1.391163	-0.022486342	0.98104081	1.1260512	-0.25402854	1.2506804	1.0134174	0.18321394	0.99131361	0.89706766	-0.3340499	1.4789471	0.95907138	0.26042802
494	1.972	1.6413056	0.044356356	-0.097857869	0.81401523	0.037290931	0.059466059	1.5041629	0.064497432	-0.12365176	0.71933029	0.13835599	0.097148857	1.5148462	0.087628153	-0.041585777	0.75714539	0.14429804	0.016802922	1.4409839	0.034056482	-0.07861218	0.66897313	0.14812779	0.047051129	1.4323787	0.44772732	-0.1507844	0.99169858	0.43468663	0.12563524	1.4496733	0.42439799	-0.031523969	1.0296152	0.41819777	0.0035251122	1.2841566	0.79700364	-0.20461102	1.1236708	0.81903949	0.15897278	1.3081217	0.90072456	-0.11643453	1.2314263	0.89691459	0.11967149	1.0807185	0.91025176	-0.071712728	1.1901565	1.3859076	-0.17299214	1.1772907	1.3630576	0.14500003	1.0987005	1.3915935	-0.023616652	0.98862506	1.1249808	-0.25490676	1.2559096	1.0136229	0.18139426	0.99969708	0.89591512	-0.33454569	1.4833516	0.95682306	0.25904107
495	1.976	1.6421158	0.043686065	-0.097079561	0.8148552	0.037172039	0.059181346	1.504801	0.064683135	-0.12319386	0.72328016	0.14119359	0.097027443	1.5154874	0.087556528	-0.041115151	0.76219082	0.14590674	0.017088094	1.4413672	0.034253362	-0.078484779	0.67413995	0.15192631	0.046270646	1.439884	0.44897933	-0.15070135	0.99862519	0.43480235	0.12553056	1.4542654	0.42560904	-0.031337213	1.0370846	0.41756579	0.0038680287	1.2915847	0.79877928	-0.20514799	1.1304058	0.81855022	0.15859438	1.3145704	0.90142055	-0.11645415	1.2379464	0.89668131	0.11889415	1.0873496	0.91089309	-0.072254578	1.1966549	1.3858741	-0.17416269	1.1842653	1.3639718	0.14396296	1.1054006	1.3920873	-0.024694294	0.99627117	1.1238833	-0.25574742	1.2610881	1.0138448	0.17960527	1.0082093	0.89476519	-0.3350496	1.4876511	0.954556	0.25765035
496	1.98	1.6428352	0.043105732	-0.096479988	0.81574355	0.037057514	0.058956239	1.5052378	0.064933477	-0.12282613	0.72755805	0.14397512	0.096841994	1.5160536	0.087602867	-0.040775365	0.76754966	0.14740328	0.017343318	1.4417099	0.034431881	-0.078397751	0.67964302	0.15567625	0.045423931	1.4472191	0.45016081	-0.15052078	1.0057815	0.43484418	0.12546308	1.4591933	0.42687611	-0.031079304	1.0448336	0.4167505	0.0043004138	1.2987946	0.80062787	-0.2056496	1.1373735	0.81781051	0.15837498	1.3210841	0.90220168	-0.11649729	1.2444306	0.89645267	0.11810076	1.0939844	0.91147754	-0.072767047	1.2031678	1.3858552	-0.17530977	1.1912884	1.3649312	0.14293621	1.1120908	1.3926408	-0.025728266	1.0039625	1.1227672	-0.25655472	1.2662735	1.014147	0.17784554	1.016851	0.89363028	-0.33556328	1.4918544	0.95226859	0.25625461
497	1.984	1.6435012	0.042591156	-0.09608243	0.81671514	0.03694562	0.058742054	1.5055555	0.065204031	-0.1225581	0.73219395	0.14666443	0.096570096	1.5164582	0.087702183	-0.040555925	0.77320983	0.14878189	0.017562705	1.4420221	0.034637073	-0.078376955	0.68546432	0.1593599	0.044547372	1.4543638	0.45126371	-0.15029106	1.0131325	0.43480893	0.12544848	1.4645592	0.4281697	-0.030770042	1.0528714	0.41573457	0.0048295838	1.3057701	0.80248317	-0.20616381	1.1445853	0.81668186	0.15825988	1.3276593	0.90307909	-0.11657967	1.2508664	0.89622141	0.11727686	1.100639	0.91202309	-0.073248156	1.2096997	1.3858373	-0.17642715	1.1983457	1.3659177	0.14191679	1.1187586	1.3932374	-0.026739737	1.0116789	1.1216394	-0.25733973	1.2714622	1.0145595	0.17611664	1.0256173	0.89251116	-0.33608638	1.495972	0.94995628	0.25485467
498	1.988	1.6441148	0.042142384	-0.095865726	0.81781062	0.036817134	0.058555014	1.5058563	0.065446123	-0.12236621	0.73719951	0.14925704	0.096251244	1.5164506	0.087750524	-0.040414068	0.77916782	0.15002853	0.01777876	1.4423125	0.034866125	-0.078401537	0.69159258	0.16295913	0.043664512	1.461287	0.45227214	-0.15005877	1.0206001	0.43469815	0.12546899	1.4701056	0.42946409	-0.030457627	1.0611906	0.41452882	0.0054534518	1.3125155	0.80429848	-0.20674057	1.1518903	0.81533069	0.15807618	1.3342656	0.90406693	-0.11670316	1.2572465	0.8959762	0.11640845	1.1072868	0.91257086	-0.073668065	1.2162523	1.3858098	-0.17750775	1.2054119	1.3669015	0.14090653	1.1253991	1.3938545	-0.027740897	1.0194089	1.1205015	-0.25811658	1.2766101	1.0150742	0.17442527	1.0344931	0.8914028	-0.3366143	1.500015	0.9476172	0.25345713
